<svg xmlns="http://www.w3.org/2000/svg" viewBox="0 0 48 48"><g data-name="03-certificate"><path d="M5 20c0 4.28-.84 7.78-1.9 7.99A.34.34 0 0 1 3 28c-1.1 0-2-3.58-2-8s.9-8 2-8l.1.01C4.16 12.22 5 15.72 5 20zM45 12c1.1 0 2 3.58 2 8s-.9 8-2 8a.34.34 0 0 1-.1-.01C43.84 27.78 43 24.28 43 20s.84-7.78 1.9-7.99A.34.34 0 0 1 45 12z" style="fill:#c7ccf0"/><path d="M19 21.54V14a1.759 1.759 0 0 1 .06-.46A2 2 0 0 1 21 12h6a2 2 0 0 1 1.94 1.54A1.759 1.759 0 0 1 29 14v7.54a4.1 4.1 0 0 0-2.34-.51 3.95 3.95 0 0 0-5.32 0 4.1 4.1 0 0 0-2.34.51z" style="fill:#ffb37d"/><path d="m29 13.52 15.9-1.51c-1.06.21-1.9 3.71-1.9 7.99s.84 7.78 1.9 7.99L32 26.76l-.18.06a4.207 4.207 0 0 0-.85-1.48 4 4 0 0 0-1.14-3.17 3.87 3.87 0 0 0-.83-.63V14a1.759 1.759 0 0 0-.06-.46zM19 14v7.54a3.87 3.87 0 0 0-.83.63 4 4 0 0 0-1.14 3.17 4.207 4.207 0 0 0-.85 1.48l-.18-.06-12.9 1.23C4.16 27.78 5 24.28 5 20s-.84-7.78-1.9-7.99L19 13.52l.06.02A1.759 1.759 0 0 0 19 14z" style="fill:#f7f7ff"/><path d="m24 36-4 8-2-4-4 2 3.82-8.59a2.786 2.786 0 0 0 .35.42 4 4 0 0 0 3.17 1.14A3.988 3.988 0 0 0 24 36zM30.18 33.41 34 42l-4-2-2 4-4-8a3.988 3.988 0 0 0 2.66-1.03 4 4 0 0 0 3.17-1.14 2.786 2.786 0 0 0 .35-.42z" style="fill:#ffb37d"/><circle cx="24" cy="28" r="4" style="fill:#b079ff"/><path d="M31.45 26a3.911 3.911 0 0 1 0 4 3.983 3.983 0 0 1-.48.66 3.954 3.954 0 0 1-.79 2.75 2.786 2.786 0 0 1-.35.42 4 4 0 0 1-3.17 1.14 3.95 3.95 0 0 1-5.32 0 4 4 0 0 1-3.17-1.14 2.786 2.786 0 0 1-.35-.42 3.954 3.954 0 0 1-.79-2.75 3.983 3.983 0 0 1-.48-.66 3.911 3.911 0 0 1 0-4 3.983 3.983 0 0 1 .48-.66 3.953 3.953 0 0 1 4.31-4.31 3.95 3.95 0 0 1 5.32 0 3.953 3.953 0 0 1 4.31 4.31 3.983 3.983 0 0 1 .48.66zM28 28a4 4 0 1 0-4 4 4 4 0 0 0 4-4z" style="fill:#fff978"/><path d="M29 21.54a3.87 3.87 0 0 1 .83.63 4 4 0 0 1 1.14 3.17 4.207 4.207 0 0 1 .85 1.48l.18-.06 12.9 1.23c-.905-.179-1.648-2.761-1.846-6.176L29 20.476zM4.946 21.814c-.2 3.415-.941 6-1.846 6.176L16 26.76l.18.06a4.207 4.207 0 0 1 .85-1.48 4 4 0 0 1 1.14-3.17 3.87 3.87 0 0 1 .83-.63v-1.064z" style="fill:#e1e7f7"/><path d="M43.918 13.282A20.54 20.54 0 0 0 43 20a20.54 20.54 0 0 0 .918 6.718C44.541 25.872 45 23.188 45 20s-.459-5.872-1.082-6.718zM4.082 13.282A20.54 20.54 0 0 1 5 20a20.54 20.54 0 0 1-.918 6.718C3.459 25.872 3 23.188 3 20s.459-5.872 1.082-6.718z" style="fill:#999dc2"/><path d="M28.94 13.54A2 2 0 0 0 27 12h-6a2 2 0 0 0-1.94 1.54A1.759 1.759 0 0 0 19 14v3a1.759 1.759 0 0 1 .06-.46A2 2 0 0 1 21 15h6a2 2 0 0 1 1.94 1.54A1.759 1.759 0 0 1 29 17v-3a1.759 1.759 0 0 0-.06-.46z" style="fill:#ffc69e"/><path d="M24 30a3.989 3.989 0 0 1-3.859-3 4 4 0 1 0 7.718 0A3.989 3.989 0 0 1 24 30z" style="fill:#976efa"/><path d="M19.627 36.746 18 40l2 4 3.064-6.127a4.069 4.069 0 0 1-1.724-.9 4.155 4.155 0 0 1-1.713-.227zM26.66 36.97a4.069 4.069 0 0 1-1.724.9L28 44l2-4-1.627-3.254a4.155 4.155 0 0 1-1.713.224z" style="fill:#fb9881"/><path d="M21.34 34.97a4.2 4.2 0 0 1-.816-.017l-.9 1.793a4.155 4.155 0 0 0 1.713.224 4.069 4.069 0 0 0 1.724.9L24 36a3.988 3.988 0 0 1-2.66-1.03z" style="fill:#ff8488"/><path d="M18.17 35.83a3.891 3.891 0 0 0 1.457.916l.9-1.793a3.937 3.937 0 0 1-2.357-1.123 2.786 2.786 0 0 1-.35-.42l-.493 1.11a3.819 3.819 0 0 0 .493.89 2.786 2.786 0 0 0 .35.42z" style="fill:#fb9881"/><path d="m28.373 36.746-.9-1.793a4.2 4.2 0 0 1-.816.017A3.988 3.988 0 0 1 24 36l.936 1.873a4.069 4.069 0 0 0 1.724-.9 4.155 4.155 0 0 0 1.713-.227z" style="fill:#ff8488"/><path d="M29.83 33.83a3.937 3.937 0 0 1-2.354 1.123l.9 1.793a3.891 3.891 0 0 0 1.457-.916 2.786 2.786 0 0 0 .35-.42 3.819 3.819 0 0 0 .493-.89l-.493-1.11a2.786 2.786 0 0 1-.353.42z" style="fill:#fb9881"/><path d="M19 19.427a4.88 4.88 0 0 0-2.264 1.265L19 20.476zM31.264 20.692A4.88 4.88 0 0 0 29 19.427v1.049z" style="fill:#e1e7f7"/><path d="M29 20.476v-1.049a5.257 5.257 0 0 0-1.675-.14 4.939 4.939 0 0 0-6.65 0 5.257 5.257 0 0 0-1.675.14v2.113a3.908 3.908 0 0 1 .605-.275c.069-.025.139-.04.209-.061a3.992 3.992 0 0 1 .538-.124c.084-.013.166-.027.25-.035a4.414 4.414 0 0 1 .736-.015 4.138 4.138 0 0 1 1.21-.751 3.907 3.907 0 0 1 2.9 0 4.151 4.151 0 0 1 1.21.751 4.414 4.414 0 0 1 .736.015c.084.009.166.021.25.035a3.845 3.845 0 0 1 .538.124c.07.021.14.036.209.061a3.908 3.908 0 0 1 .609.275z" style="fill:#ff8488"/><path d="m32 26.76 1.871.178a4.825 4.825 0 0 0-.3-.938 4.9 4.9 0 0 0-.256-.5 4.974 4.974 0 0 0-.6-.825 5 5 0 0 0-1.426-3.963l-.023-.02L29 20.476v1.064c.023.013.044.03.066.044.049.028.094.061.141.092a3.821 3.821 0 0 1 .623.494 4 4 0 0 1 1.14 3.17 3.983 3.983 0 0 1 .48.66l.012.024c.01.017.017.036.027.053a4.278 4.278 0 0 1 .2.406c.029.068.047.141.072.211.015.042.04.079.054.122zM19 20.476l-2.264.216-.023.02a5 5 0 0 0-1.426 3.963 4.979 4.979 0 0 0-.6.825 5.107 5.107 0 0 0-.255.5 4.825 4.825 0 0 0-.3.938L16 26.76l.18.06c.014-.043.039-.08.054-.122.025-.07.043-.143.072-.211a4.278 4.278 0 0 1 .2-.406c.01-.017.017-.036.027-.053L16.55 26a3.983 3.983 0 0 1 .48-.66 4 4 0 0 1 1.14-3.17 3.821 3.821 0 0 1 .623-.494c.047-.031.092-.064.141-.092.022-.014.043-.031.066-.044z" style="fill:#c7ccf0"/><ellipse cx="25.682" cy="26.708" rx=".825" ry="1.148" transform="rotate(-45.02 25.681 26.708)" style="fill:#f6fafd"/><ellipse cx="22.427" cy="28.208" rx=".413" ry=".574" transform="rotate(-45.02 22.427 28.208)" style="fill:#f6fafd"/><ellipse cx="26.682" cy="14.708" rx=".825" ry="1.148" transform="rotate(-45.02 26.682 14.708)" style="fill:#f6fafd"/><ellipse cx="23.427" cy="14.208" rx=".413" ry=".574" transform="rotate(-45.02 23.427 14.208)" style="fill:#f6fafd"/><path d="M24 33a5 5 0 1 0-5-5 5.006 5.006 0 0 0 5 5zm0-8a3 3 0 1 1-3 3 3 3 0 0 1 3-3z"/><path d="M31.31 33.486A4.993 4.993 0 0 0 31.982 31a4.929 4.929 0 0 0 0-6 4.937 4.937 0 0 0-4.969-4.982H27a5.047 5.047 0 0 0-6 0h-.012A4.937 4.937 0 0 0 16.018 25a4.929 4.929 0 0 0 0 6 5 5 0 0 0 .672 2.486l-3.6 8.108a1 1 0 0 0 1.361 1.3l3.106-1.553 1.552 3.105a1 1 0 0 0 1.79 0L24 38.236l3.105 6.211a1 1 0 0 0 1.79 0l1.552-3.105 3.106 1.558a1 1 0 0 0 1.361-1.3zm-13.533-7.478a1 1 0 0 0 .252-.753 2.949 2.949 0 0 1 3.226-3.226.992.992 0 0 0 .753-.252 3.016 3.016 0 0 1 3.985 0 .985.985 0 0 0 .752.252 2.949 2.949 0 0 1 3.226 3.226 1 1 0 0 0 .252.753 2.942 2.942 0 0 1 0 3.984 1 1 0 0 0-.252.753 2.949 2.949 0 0 1-3.226 3.226 1 1 0 0 0-.753.252 3.016 3.016 0 0 1-3.985 0 1 1 0 0 0-.667-.256.806.806 0 0 0-.085 0 2.949 2.949 0 0 1-3.226-3.226 1 1 0 0 0-.252-.753 2.942 2.942 0 0 1 0-3.984zM20 41.764l-1.1-2.211a1 1 0 0 0-1.342-.448l-1.507.754 2.108-4.759a4.984 4.984 0 0 0 2.828.878H21a5.025 5.025 0 0 0 1.5.777zM30.447 39.1a1 1 0 0 0-1.342.448L28 41.764l-2.5-5.005a5.013 5.013 0 0 0 1.5-.777h.013a4.984 4.984 0 0 0 2.828-.878l2.113 4.755zM33.899 27.971l.19-1.99 1.999.19-.19 1.99z"/><path d="M45 11c-.033 0-.061.014-.094.016V11l-15.342 1.466A2.991 2.991 0 0 0 27 11h-6a2.991 2.991 0 0 0-2.564 1.466L3.1 11v.012C3.061 11.014 3.033 11 3 11c-2.855 0-3 7.5-3 9s.145 9 3 9c.033 0 .061-.014.094-.016V29l11-1.048-.19-1.991-8.79.837A24.1 24.1 0 0 0 6 20a24.1 24.1 0 0 0-.885-6.794L18 14.433V19h2v-5a1 1 0 0 1 1-1h6a1 1 0 0 1 1 1v5h2v-4.567l12.885-1.227A24.1 24.1 0 0 0 42 20a24.1 24.1 0 0 0 .885 6.794l-4.791-.456-.189 1.991 7 .667v-.012c.033 0 .061.016.094.016 2.855 0 3-7.5 3-9s-.144-9-2.999-9zM2 20a17.475 17.475 0 0 1 1-6.728A17.475 17.475 0 0 1 4 20a17.475 17.475 0 0 1-1 6.728A17.475 17.475 0 0 1 2 20zm43 6.728A17.475 17.475 0 0 1 44 20a17.475 17.475 0 0 1 1-6.728A17.475 17.475 0 0 1 46 20a17.475 17.475 0 0 1-1 6.728z"/></g></svg>