<svg xmlns="http://www.w3.org/2000/svg" viewBox="0 0 512.001 512.001" style="enable-background:new 0 0 512.001 512.001" xml:space="preserve"><path style="fill:#51504e" d="M488.21 315.796h-22.624a75.974 75.974 0 0 0-9.549-23.053l15.998-15.998c6.771-6.771 6.771-17.746 0-24.517-6.77-6.771-17.746-6.771-24.518 0l-15.995 15.996a76.083 76.083 0 0 0-23.053-9.546v-22.624c0-9.576-7.763-17.337-17.337-17.337s-17.334 7.761-17.334 17.337v22.624a76.008 76.008 0 0 0-23.056 9.548l-15.997-15.998c-6.771-6.771-17.747-6.771-24.519 0-6.769 6.77-6.769 17.747 0 24.517l16 15.998a75.95 75.95 0 0 0-9.548 23.053h-22.627c-9.573 0-17.336 7.763-17.336 17.337s7.763 17.336 17.336 17.336h22.627a75.957 75.957 0 0 0 9.548 23.054l-16 15.996c-6.769 6.772-6.769 17.748 0 24.518 6.771 6.771 17.747 6.771 24.519 0l15.997-15.997a75.914 75.914 0 0 0 23.056 9.547v22.626c0 9.574 7.761 17.335 17.334 17.335s17.337-7.761 17.337-17.335v-22.626a75.96 75.96 0 0 0 23.053-9.547l15.998 15.997c6.769 6.771 17.746 6.771 24.517 0 6.77-6.77 6.77-17.745 0-24.518l-16-15.996a75.938 75.938 0 0 0 9.549-23.054h22.624c9.574 0 17.337-7.762 17.337-17.336 0-9.575-7.763-17.337-17.337-17.337zm-97.079 61.209c-24.232 0-43.874-19.641-43.874-43.872 0-24.23 19.642-43.873 43.874-43.873 24.228 0 43.872 19.643 43.872 43.873 0 24.23-19.644 43.872-43.872 43.872z"/><path style="fill:#6b6968" d="M488.21 315.796h-22.624a75.974 75.974 0 0 0-9.549-23.053l15.998-15.998c6.771-6.771 6.771-17.746 0-24.517-6.77-6.771-17.746-6.771-24.518 0l-15.995 15.996a76.083 76.083 0 0 0-23.053-9.546v-11.06c-18.043 10.867-32.115 27.653-39.531 47.673a43.656 43.656 0 0 1 22.194-6.032c24.228 0 43.872 19.643 43.872 43.873 0 24.231-19.644 43.872-43.872 43.872a43.724 43.724 0 0 1-15.721-2.914 93.939 93.939 0 0 0 33.058 33.817v-.323a75.975 75.975 0 0 0 23.054-9.547l15.998 15.997c6.769 6.771 17.746 6.771 24.517 0 6.77-6.77 6.77-17.745 0-24.518l-16-15.996a75.938 75.938 0 0 0 9.549-23.054h22.624c9.574 0 17.337-7.762 17.337-17.336s-7.764-17.334-17.338-17.334z"/><path style="fill:#c6c6c6" d="M251.711 314.949c-49.4 39.953-123.4 4.586-123.4-58.948 0-41.855 33.931-75.787 75.787-75.787 39.071 0 71.229 29.571 75.333 67.552 12.674-16.56 28.943-30.225 47.649-39.817a131.166 131.166 0 0 0-10.863-21.718l27.634-27.635c11.695-11.695 11.695-30.654 0-42.349-11.698-11.695-30.655-11.695-42.35 0l-27.634 27.636a131.255 131.255 0 0 0-39.822-16.493V88.306c0-16.539-13.408-29.947-29.946-29.947-16.542 0-29.946 13.408-29.946 29.947v39.085a131.128 131.128 0 0 0-39.824 16.495l-27.636-27.638c-11.697-11.695-30.655-11.695-42.35 0-11.696 11.695-11.696 30.655 0 42.349l27.638 27.635a131.179 131.179 0 0 0-16.495 39.824H36.4c-16.538 0-29.946 13.407-29.946 29.946 0 16.541 13.408 29.948 29.946 29.948h39.086a131.135 131.135 0 0 0 16.495 39.82l-27.64 27.635c-11.694 11.698-11.694 30.657.002 42.351 11.695 11.698 30.653 11.698 42.35 0l27.636-27.634a131.25 131.25 0 0 0 39.824 16.494v39.085c0 16.539 13.404 29.944 29.946 29.944 16.538 0 29.946-13.405 29.946-29.944v-39.085c8.121-1.885 15.942-4.538 23.413-7.837-6.488-19.886-8.435-41.058-5.747-61.83z"/><path style="fill:#ddd" d="m301.502 116.247-27.634 27.636a131.255 131.255 0 0 0-39.822-16.493v-25.373c-61.669 17.529-106.835 74.269-106.835 141.558 0 67.29 45.164 124.03 106.835 141.559v-.52c8.121-1.885 15.942-4.538 23.413-7.837-6.488-19.883-8.436-41.057-5.748-61.828-49.4 39.953-123.4 4.586-123.4-58.948 0-41.855 33.931-75.787 75.787-75.787 39.071 0 71.229 29.571 75.333 67.552 12.674-16.56 28.943-30.225 47.649-39.817a131.166 131.166 0 0 0-10.863-21.718l27.634-27.635c11.695-11.695 11.695-30.654 0-42.349-11.697-11.695-30.655-11.695-42.349 0z"/><path d="M390.545 281.579c-28.243 0-51.221 22.977-51.221 51.22s22.977 51.219 51.221 51.219c7.298 0 14.351-1.505 20.962-4.475a7.536 7.536 0 0 0 3.788-9.962c-1.705-3.797-6.169-5.496-9.962-3.788a35.87 35.87 0 0 1-14.789 3.152c-19.931 0-36.148-16.215-36.148-36.146s16.216-36.147 36.148-36.147c28.045 0 45.392 30.713 31.036 54.687a7.537 7.537 0 0 0 12.932 7.744c20.378-34.03-4.282-77.504-43.967-77.504z"/><path d="M487.203 308.001h-16.762a83.016 83.016 0 0 0-5.866-14.165l11.851-11.851c4.685-4.684 7.264-10.911 7.264-17.535 0-6.623-2.578-12.85-7.264-17.534-9.668-9.668-25.399-9.667-35.069.001l-11.851 11.851a82.974 82.974 0 0 0-14.163-5.864v-16.763c0-13.673-11.124-24.798-24.798-24.798-13.672 0-24.796 11.124-24.796 24.798v16.762a83.03 83.03 0 0 0-14.166 5.867l-11.853-11.854c-9.668-9.668-25.399-9.667-35.069.001-9.668 9.669-9.667 25.4.001 35.068l11.853 11.852a82.925 82.925 0 0 0-5.866 14.164h-16.764c-13.673 0-24.798 11.124-24.798 24.798s11.124 24.798 24.798 24.798h16.764a82.959 82.959 0 0 0 5.866 14.164l-11.855 11.853c-9.665 9.67-9.665 25.4.001 35.066 4.684 4.685 10.911 7.264 17.535 7.264s12.851-2.579 17.534-7.264l11.852-11.851a82.837 82.837 0 0 0 14.167 5.865v16.763c0 13.672 11.123 24.797 24.796 24.797s24.798-11.124 24.798-24.797v-16.763a82.959 82.959 0 0 0 14.164-5.866l11.851 11.85c4.684 4.686 10.911 7.265 17.535 7.265s12.852-2.579 17.536-7.264c9.666-9.667 9.666-25.397-.001-35.069l-11.853-11.851a82.878 82.878 0 0 0 5.866-14.164h16.762c13.673 0 24.798-11.124 24.798-24.798 0-13.675-11.125-24.796-24.798-24.796zm0 34.522h-22.527a7.539 7.539 0 0 0-7.343 5.835 67.944 67.944 0 0 1-8.56 20.666 7.535 7.535 0 0 0 1.067 9.317l15.929 15.926c3.791 3.793 3.791 9.963.001 13.755a9.663 9.663 0 0 1-6.877 2.849 9.66 9.66 0 0 1-6.876-2.85l-15.929-15.928a7.538 7.538 0 0 0-9.316-1.066 68.013 68.013 0 0 1-20.668 8.559 7.538 7.538 0 0 0-5.834 7.343v22.528c0 5.362-4.363 9.724-9.725 9.724-5.361 0-9.723-4.362-9.723-9.724v-22.528a7.539 7.539 0 0 0-5.835-7.343 67.92 67.92 0 0 1-20.668-8.559 7.536 7.536 0 0 0-9.317 1.066l-15.93 15.929a9.663 9.663 0 0 1-6.876 2.849 9.656 9.656 0 0 1-6.876-2.85c-3.79-3.789-3.79-9.959-.001-13.752l15.931-15.928a7.537 7.537 0 0 0 1.067-9.317 67.98 67.98 0 0 1-8.56-20.666 7.54 7.54 0 0 0-7.343-5.835h-22.529c-5.362 0-9.725-4.363-9.725-9.725s4.363-9.725 9.725-9.725h22.529a7.537 7.537 0 0 0 7.342-5.834 67.996 67.996 0 0 1 8.561-20.667 7.535 7.535 0 0 0-1.067-9.317l-15.93-15.929c-3.791-3.79-3.791-9.96-.001-13.752 3.791-3.791 9.963-3.79 13.754-.001L345 273.502a7.533 7.533 0 0 0 9.316 1.067 68.058 68.058 0 0 1 20.67-8.561 7.536 7.536 0 0 0 5.834-7.342v-22.527c0-5.362 4.362-9.725 9.723-9.725 5.362 0 9.725 4.363 9.725 9.725v22.527a7.537 7.537 0 0 0 5.834 7.342 68.082 68.082 0 0 1 20.669 8.56 7.537 7.537 0 0 0 9.316-1.068l15.926-15.927c3.791-3.791 9.962-3.791 13.755 0a9.66 9.66 0 0 1 2.848 6.875 9.655 9.655 0 0 1-2.849 6.876l-15.929 15.929a7.538 7.538 0 0 0-1.066 9.317 68.042 68.042 0 0 1 8.561 20.667 7.537 7.537 0 0 0 7.342 5.834h22.527c5.362 0 9.725 4.363 9.725 9.725s-4.362 9.727-9.724 9.727z"/><path d="M258.103 332.799c0-5.726.371-11.493 1.101-17.139a7.538 7.538 0 0 0-12.213-6.828c-12.205 9.871-26.959 15.089-42.667 15.089-37.452 0-67.923-30.469-67.923-67.922 0-50.147 52.789-83.047 97.733-61.046a7.538 7.538 0 0 0 6.628-13.538C185.821 154.522 121.329 194.729 121.329 256c0 45.763 37.232 82.995 82.996 82.995 13.538 0 26.87-3.353 38.746-9.616a150.12 150.12 0 0 0-.039 3.42c0 13.273 1.762 26.387 5.244 39.079a122.386 122.386 0 0 1-15.837 4.836 7.536 7.536 0 0 0-5.833 7.342v38.916c0 12.284-9.994 22.278-22.28 22.278s-22.28-9.993-22.28-22.278v-38.916a7.537 7.537 0 0 0-5.834-7.342 123.064 123.064 0 0 1-37.367-15.475 7.535 7.535 0 0 0-9.316 1.066l-27.517 27.514a22.134 22.134 0 0 1-15.755 6.528c-19.77 0-29.751-24.035-15.756-38.036l27.52-27.516a7.536 7.536 0 0 0 1.066-9.318 122.858 122.858 0 0 1-15.476-37.361 7.536 7.536 0 0 0-7.342-5.834H37.353c-12.285 0-22.28-9.995-22.28-22.282 0-12.285 9.994-22.28 22.28-22.28h38.916a7.537 7.537 0 0 0 7.342-5.834 122.971 122.971 0 0 1 15.476-37.366 7.534 7.534 0 0 0-1.066-9.317l-27.518-27.515c-8.707-8.707-8.708-22.799.001-31.506 8.686-8.687 22.822-8.686 31.507-.001l27.516 27.518a7.536 7.536 0 0 0 9.318 1.066 122.855 122.855 0 0 1 37.364-15.474 7.538 7.538 0 0 0 5.835-7.343V89.033c0-12.286 9.994-22.281 22.28-22.281s22.28 9.994 22.28 22.281v38.916a7.537 7.537 0 0 0 5.834 7.342 123.03 123.03 0 0 1 37.365 15.474 7.534 7.534 0 0 0 9.316-1.067l27.514-27.515c8.686-8.687 22.822-8.687 31.507 0 8.688 8.687 8.688 22.82 0 31.506l-27.514 27.516a7.538 7.538 0 0 0-1.066 9.316 122.029 122.029 0 0 1 7.622 14.273c-12.369 7.117-23.746 16.082-33.615 26.459-3.555-11.441-9.577-21.981-17.805-31.041a7.536 7.536 0 1 0-11.157 10.134c9.725 10.708 15.683 23.94 17.231 38.264a7.537 7.537 0 0 0 13.478 3.771c11.949-15.611 27.473-28.584 44.896-37.519a7.535 7.535 0 0 0 3.581-9.447 139.909 139.909 0 0 0-8.37-17.69l23.378-23.378c14.597-14.599 14.6-38.224-.001-52.825-14.563-14.561-38.261-14.564-52.825.001l-23.374 23.375a137.832 137.832 0 0 0-30.923-12.806v-33.06c0-20.597-16.756-37.354-37.353-37.354S166.97 68.435 166.97 89.032v33.06a137.776 137.776 0 0 0-30.926 12.808l-23.376-23.378c-23.493-23.489-63.765-6.713-63.765 26.413 0 9.977 3.886 19.358 10.942 26.412l23.377 23.374a137.88 137.88 0 0 0-12.809 30.926h-33.06C16.756 218.648 0 235.404 0 256.001c0 20.598 16.756 37.355 37.353 37.355h33.061a137.819 137.819 0 0 0 12.808 30.922l-23.379 23.376c-23.446 23.454-6.75 63.766 26.414 63.766 9.977 0 19.358-3.886 26.413-10.942l23.377-23.375a137.9 137.9 0 0 0 30.925 12.808v33.06c0 20.595 16.756 37.351 37.353 37.351s37.353-16.756 37.353-37.351v-33.066a139.899 139.899 0 0 0 18.82-6.76 7.539 7.539 0 0 0 4.12-9.233c-4.324-13.244-6.515-27.076-6.515-41.113z"/></svg>